/* XPM */
static char *mathomatic[] = {
/* columns rows colors chars-per-pixel */
"32 32 4 1",
"  c #000000",
". c #FFFF00",
"X c #0000BF",
"o c None",
/* pixels */
"o                             oo",
"                               o",
"   ....XX...XXXXX.....XX...X   o",
"  ......XXX.XXXXX..XX..XXX.XX  o",
"  ..XX..X...XXXXX..XX..X...XX  o",
"  ..XX..X.XXXXXXX..XX..X.XXXX  o",
"  ......X...X.XXX.....XX...XX  o",
"  ......XXXXX.XXX..XX..XXXXXX  o",
"  ..XX..XXX.....X..XX..XXXXXX  o",
"  ..XX..XXXXX.XXX..XX..XXXXXX  o",
"  ..XX..XXXXX.XXX.....XXXXXXX  o",
"  XXXXXXXXXXXXXXXXXXXXXXXXXXX  o",
"  XXXXXXXXXXXXXXXXXXXXXXXX...  o",
"  XXXXXXXXXXXXXXXXXX.....XXX.  o",
"  XXXXXXXXXXXXXXXXXX.....X...  o",
"  XXXXXXXXXXXXXXXXXX..XXXX.XX  o",
"  XXXXXXXXXX......XX..XXXX...  o",
"  XXXXXXXXXXXXXXXXXX..XXXXXXX  o",
"  XXXXXXXXXX......XX..XXXXXXX  o",
"  XXXXXXXXXXXXXXXXXX..XXXXXXX  o",
"  XXXXXXXXXXXXXXXXXX.....XXXX  o",
"  XXXXXXXXXXXXXXXXXX.....XXXX  o",
"   XXXXXXXXXXXXXXXXXXXXXXXXX   o",
"                               o",
"o                             oo",
"oooooooooooooo   ooooooooooooooo",
"oooooooooooooo   ooooooooooooooo",
"ooooooooooooo     oooooooooooooo",
"ooooooooooooo     oooooooooooooo",
"ooooooooooo         oooooooooooo",
"ooooooo                 oooooooo",
"ooo                         oooo"
};
